<?xml version="1.0" standalone="no"?>
<!DOCTYPE svg PUBLIC "-//W3C//DTD SVG 20010904//EN"
 "http://www.w3.org/TR/2001/REC-SVG-20010904/DTD/svg10.dtd">
<svg version="1.0" xmlns="http://www.w3.org/2000/svg"
 width="474.000000pt" height="474.000000pt" viewBox="0 0 474.000000 474.000000"
 preserveAspectRatio="xMidYMid meet">
<metadata>
Created by potrace 1.14, written by Peter Selinger 2001-2017
</metadata>
<g transform="translate(0.000000,474.000000) scale(0.100000,-0.100000)"
fill="#000000" stroke="none">
<path d="M0 2370 l0 -2370 301 0 302 0 -8 78 c-10 108 -7 524 6 602 5 36 17
84 25 108 30 90 41 169 30 222 -9 45 -14 51 -53 70 -30 14 -43 26 -43 40 0 11
-7 20 -15 20 -8 0 -15 7 -15 15 0 9 -7 18 -15 21 -8 4 -15 16 -15 28 0 12 -11
32 -25 44 -14 12 -25 28 -25 36 0 8 -10 23 -22 33 -13 10 -30 31 -38 47 -8 15
-24 32 -36 37 -12 4 -25 13 -29 19 -3 5 -11 8 -16 5 -5 -4 -12 1 -15 9 -3 9
-14 16 -23 16 -10 0 -26 6 -36 14 -16 12 -17 16 -6 30 11 13 10 22 -7 57 -16
32 -18 47 -11 72 8 27 6 35 -11 49 -11 9 -29 14 -40 11 -27 -7 -25 3 4 30 33
29 35 63 7 115 -34 67 -38 129 -11 183 15 28 25 39 28 29 3 -8 13 -27 23 -42
22 -30 24 -54 6 -61 -9 -3 -9 -9 0 -26 7 -11 13 -32 13 -46 0 -14 3 -24 8 -24
19 3 33 -2 28 -10 -4 -5 -3 -16 0 -24 7 -18 92 -22 141 -6 18 6 38 7 44 3 12
-7 -29 -32 -129 -79 -28 -14 -52 -28 -52 -31 0 -4 18 -4 40 0 29 5 47 2 66
-11 l26 -16 -24 -13 c-23 -13 -22 -13 10 -14 25 0 32 -4 32 -19 0 -11 -6 -22
-12 -25 -13 -6 16 0 52 10 24 6 26 -11 5 -32 -19 -19 -20 -38 -2 -31 8 3 20 1
28 -5 11 -8 11 -9 -3 -5 -9 3 -23 -2 -32 -12 -15 -16 -15 -19 4 -36 18 -16 20
-16 20 -2 0 10 5 17 10 17 15 0 12 -16 -5 -30 -20 -17 -19 -27 6 -40 15 -8 24
-8 34 0 10 8 15 4 23 -20 9 -24 8 -30 -3 -30 -10 0 -7 -8 9 -25 15 -16 34 -25
53 -25 33 0 83 -29 51 -30 -24 0 -22 -9 7 -32 13 -10 32 -36 42 -56 22 -47 48
-72 73 -72 17 0 20 -7 20 -40 0 -30 4 -40 16 -40 13 0 15 -10 12 -58 -3 -60
-2 -62 47 -47 16 5 23 -1 33 -27 22 -55 28 -63 51 -66 12 -2 27 -12 34 -23 6
-10 20 -19 29 -19 14 0 18 -8 18 -40 l0 -40 40 0 40 0 0 -40 0 -40 -53 0 c-53
0 -54 -1 -65 -36 -6 -20 -8 -42 -6 -49 3 -8 -4 -20 -15 -27 -24 -14 -28 -48
-7 -48 10 0 16 -22 21 -80 5 -54 11 -80 20 -80 14 0 30 -123 20 -162 -5 -19
-1 -28 19 -42 32 -20 33 -36 5 -36 -19 0 -17 -6 22 -49 l44 -49 1703 -1 c1129
-1 1702 2 1702 9 0 14 27 12 33 -2 4 -10 6 -10 6 0 1 16 28 16 35 0 5 -11 7
-11 12 0 4 7 27 12 65 12 33 0 59 4 59 10 0 6 -4 10 -10 10 -5 0 -10 14 -10
30 0 21 -5 30 -17 30 -15 0 -15 1 0 18 24 26 22 62 -3 62 -25 0 -25 15 0 40
11 11 20 31 20 45 0 23 -41 75 -60 75 -8 0 -50 61 -50 74 0 3 11 6 24 6 31 0
37 10 41 63 2 34 7 43 24 45 33 5 27 38 -9 45 -36 8 -38 22 -7 47 20 17 20 19
5 25 -10 4 -18 13 -18 21 0 7 -7 17 -16 22 -14 8 -11 14 15 43 33 36 38 58 19
77 -9 9 -7 12 10 12 19 0 22 5 22 40 0 22 -4 40 -10 40 -5 0 -10 18 -10 40 0
22 5 40 10 40 6 0 10 30 10 70 0 40 4 70 10 70 7 0 10 160 10 460 0 263 -4
460 -9 460 -5 0 -16 18 -24 39 -9 22 -21 42 -27 46 -5 3 -10 22 -10 40 0 29
-10 45 -67 102 -69 69 -143 193 -143 238 0 27 -43 75 -67 75 -10 0 -23 10 -28
22 -6 13 -18 24 -27 26 -15 3 -15 -1 -5 -27 10 -26 9 -33 -6 -43 -10 -7 -17
-22 -15 -33 3 -29 -13 -105 -22 -105 -4 0 -11 20 -14 45 -4 25 -12 45 -17 45
-6 0 -7 -4 -4 -10 3 -5 1 -18 -4 -27 -9 -16 -10 -15 -11 8 0 25 -2 26 -77 32
-43 3 -79 11 -81 16 -2 6 -22 11 -44 11 -62 0 -118 20 -118 42 0 21 -22 23
-50 6 -26 -17 -36 -3 -19 28 12 23 11 27 -2 38 -9 6 -14 16 -12 22 4 12 -27
24 -61 24 -13 0 -17 -5 -13 -20 7 -25 -27 -28 -41 -3 -11 19 -92 23 -114 6
-15 -12 -58 0 -58 16 0 6 5 21 11 35 18 39 -2 56 -67 56 -53 0 -53 0 -60 35
-6 36 -21 44 -41 24 -17 -17 -35 -1 -33 29 4 49 0 59 -25 72 -14 8 -24 19 -21
26 3 7 -3 19 -12 27 -17 16 -21 17 -47 17 -22 0 -20 56 3 69 14 8 15 10 2 15
-30 9 -106 18 -148 17 -23 -1 -55 5 -70 12 -15 8 -53 17 -85 21 -33 3 -79 15
-102 26 -24 11 -49 20 -54 20 -6 0 -11 7 -11 15 0 9 -11 20 -25 25 -14 5 -25
14 -25 20 0 5 -12 10 -27 10 -42 0 -73 11 -73 25 0 16 -22 25 -59 25 -37 0
-68 24 -76 60 -8 37 -25 49 -25 18 -1 -22 -1 -22 -16 5 -14 25 -19 27 -82 27
-37 0 -85 5 -107 11 -22 6 -50 13 -63 16 -15 4 -33 -2 -51 -14 -15 -12 -46
-24 -69 -28 -24 -4 -42 -12 -42 -20 0 -7 -8 -16 -17 -19 -27 -10 -57 -29 -78
-49 -9 -10 -24 -16 -32 -12 -10 3 -13 1 -10 -9 3 -8 -1 -17 -9 -20 -14 -6 -20
-35 -6 -37 48 -5 74 -25 77 -61 1 -15 9 -24 24 -26 12 -2 34 -10 49 -17 23
-13 28 -12 35 0 11 20 71 19 87 0 17 -21 29 -19 52 10 20 25 42 32 52 16 3 -5
1 -33 -5 -62 -6 -30 -15 -74 -20 -99 -6 -25 -10 -54 -10 -64 0 -10 -9 -37 -20
-59 -10 -23 -19 -51 -19 -63 0 -47 23 -174 34 -188 15 -21 78 -29 123 -16 21
6 73 13 115 16 65 5 80 3 94 -11 13 -13 28 -16 58 -12 22 3 61 3 88 0 38 -5
48 -10 48 -24 0 -10 -13 -25 -29 -33 -36 -19 -91 -65 -91 -76 0 -5 17 -12 37
-16 33 -6 78 -34 56 -34 -28 0 56 -30 102 -35 62 -8 75 -18 45 -37 -11 -7 -20
-18 -20 -25 0 -7 -18 -25 -41 -40 l-41 -27 51 -19 c28 -11 51 -23 51 -27 0
-10 -81 -40 -110 -40 -30 0 -44 -9 -53 -33 -5 -14 -15 -17 -39 -15 -30 3 -33
6 -36 41 -2 20 -6 37 -10 37 -15 0 -36 -19 -29 -26 9 -9 -12 -34 -29 -34 -8 0
-14 6 -14 13 0 14 -54 41 -85 43 -11 0 -35 4 -53 8 -27 6 -37 3 -62 -21 -24
-22 -40 -28 -76 -28 -27 -1 -49 -6 -54 -15 -7 -11 -12 -11 -23 -2 -7 7 -17 8
-22 4 -4 -4 -5 7 -1 23 8 37 -9 68 -24 45 -8 -12 -10 -10 -10 10 0 26 -40 93
-72 121 -10 9 -18 23 -18 31 0 8 -7 36 -16 62 -16 45 -17 46 -31 27 -11 -17
-25 -21 -72 -21 -65 0 -74 5 -60 31 6 13 6 25 -3 39 -10 16 -10 24 0 41 13 21
13 21 -32 15 l-46 -7 0 51 c0 44 -3 52 -23 59 -13 5 -43 7 -68 4 -30 -3 -50 0
-64 10 -17 14 -18 19 -8 49 14 39 12 81 -6 102 -7 9 -11 22 -8 31 4 8 0 27 -8
41 -8 15 -11 32 -8 38 4 6 6 39 5 75 -3 68 -18 93 -54 83 -10 -2 -20 2 -24 12
-3 9 -14 16 -23 16 -12 0 -17 8 -16 28 1 30 -10 42 -39 42 -13 0 -17 -5 -13
-19 3 -13 -10 -35 -39 -67 -24 -26 -44 -56 -44 -67 0 -11 -3 -17 -7 -13 -5 4
-8 18 -8 29 0 15 -7 23 -22 25 -13 2 -23 9 -24 15 -5 107 -1 127 19 91 7 -13
11 -13 33 5 l24 19 -27 7 c-33 8 -37 25 -8 32 21 5 28 33 9 33 -6 0 -8 8 -4
19 4 13 -1 25 -17 36 -15 12 -19 19 -10 22 8 3 5 10 -10 23 -12 10 -28 16 -34
13 -7 -2 -15 0 -19 6 -9 15 -78 14 -99 -2 -20 -14 -23 -47 -11 -104 5 -22 3
-33 -4 -33 -6 0 -11 5 -11 10 0 15 -38 12 -65 -6 -17 -11 -25 -12 -25 -5 0 7
-4 9 -10 6 -5 -3 -22 1 -37 9 -16 8 -22 15 -15 16 24 0 13 38 -14 44 -34 9
-43 0 -19 -18 16 -12 17 -16 6 -30 -15 -18 -76 -22 -87 -5 -4 7 -7 24 -8 38
-1 36 -31 35 -32 -2 -1 -32 -8 -42 -24 -32 -6 4 -8 15 -5 26 6 17 1 19 -39 19
-47 0 -86 -24 -86 -54 0 -11 -14 -13 -66 -10 -86 4 -130 -14 -167 -69 -15 -23
-36 -53 -47 -67 -19 -24 -37 -123 -44 -245 -1 -27 -7 -63 -13 -80 -37 -104
-42 -130 -29 -150 26 -41 26 -65 0 -77 -13 -6 -24 -17 -24 -24 0 -7 -12 -19
-27 -26 -16 -7 -28 -20 -28 -28 0 -19 -21 -41 -36 -38 -21 5 -22 -23 -1 -29
28 -7 41 -62 18 -75 -18 -10 -22 -38 -5 -38 8 0 10 -17 7 -50 -3 -29 -1 -53 5
-57 6 -3 2 -12 -9 -20 -15 -11 -19 -26 -18 -73 1 -33 -2 -60 -5 -60 -16 0 -43
71 -38 102 3 21 -2 46 -14 70 -11 21 -19 44 -19 53 0 8 -11 33 -25 54 -31 46
-41 100 -26 129 8 14 8 34 2 61 -6 30 -5 45 5 58 17 23 18 48 0 62 -10 9 -12
20 -6 40 11 40 10 202 -2 224 -7 14 -5 23 6 36 9 10 21 33 28 52 6 19 21 47
32 62 14 20 21 45 22 80 1 81 2 85 34 114 35 30 36 39 13 65 -15 17 -15 19 1
31 40 29 -1 70 -98 97 -33 10 -37 14 -25 25 10 10 25 11 56 6 45 -9 58 -5 44
13 -13 17 -19 63 -10 78 7 11 9 10 9 -1 0 -11 3 -11 15 -1 13 11 13 15 3 21
-10 7 -9 9 5 9 9 0 17 6 17 14 0 8 4 26 10 41 l10 25 21 -21 c20 -20 21 -23 6
-34 -18 -13 -24 -55 -8 -55 5 0 18 16 30 35 11 19 28 35 38 35 17 1 17 1 1 11
-10 5 -18 16 -18 24 0 8 -9 19 -20 25 -11 6 -20 20 -20 30 0 11 -4 20 -9 20
-5 0 4 14 20 32 17 17 28 37 24 46 -4 11 0 13 17 9 l23 -6 -22 16 c-32 21 -29
42 7 54 30 11 39 32 19 45 -6 3 -8 18 -6 33 7 31 -11 90 -34 111 -8 8 -18 23
-22 32 -5 15 -9 15 -29 5 -59 -34 -88 -53 -88 -59 0 -5 -5 -8 -12 -8 -9 0 -9
3 0 12 7 7 12 24 12 39 0 20 12 38 45 66 48 40 55 53 30 53 -9 0 -18 7 -21 15
-7 17 -37 20 -65 5 -16 -9 -19 -7 -19 8 0 20 29 52 47 52 5 0 17 8 27 18 15
18 14 21 -24 56 -22 20 -40 45 -40 56 0 10 -5 20 -11 22 -12 4 -31 100 -30
146 0 12 -4 22 -10 22 -5 0 -8 4 -5 9 3 4 -1 17 -9 27 -8 10 -15 27 -15 37 0
12 -8 17 -30 17 l-30 0 0 -2370z m320 1610 c0 -13 -5 -18 -15 -14 -16 7 -19
17 -8 27 12 13 23 7 23 -13z m610 -710 c0 -5 -7 -10 -15 -10 -8 0 -15 5 -15
10 0 6 7 10 15 10 8 0 15 -4 15 -10z m350 -25 c0 -19 -4 -35 -9 -35 -22 0 -39
13 -34 26 3 9 -2 14 -16 14 -34 0 -24 18 12 23 17 2 35 5 40 5 4 1 7 -14 7
-33z m-210 -141 c0 -9 -5 -14 -12 -12 -18 6 -21 28 -4 28 9 0 16 -7 16 -16z
m394 -52 c4 -24 2 -34 -9 -38 -9 -4 -15 -19 -15 -40 0 -33 0 -33 -44 -31 -36
2 -47 7 -56 26 -11 24 -5 44 8 24 4 -6 23 -14 42 -17 19 -4 31 -4 25 1 -17 14
-12 77 8 85 9 4 17 15 17 25 0 27 17 2 24 -35z m1194 -68 c3 -23 -21 -49 -38
-39 -11 7 -14 48 -3 59 13 13 38 1 41 -20z m-1630 -38 c-4 -31 -38 -34 -38 -3
0 29 7 37 27 30 8 -3 13 -15 11 -27z m2100 -17 c-7 -4 -16 -3 -20 4 -11 18 2
29 18 16 12 -10 12 -14 2 -20z m-2558 11 c0 -5 -2 -10 -4 -10 -3 0 -8 5 -11
10 -3 6 -1 10 4 10 6 0 11 -4 11 -10z m950 -31 c0 -19 -16 -24 -45 -13 -14 6
-14 8 2 24 22 21 43 15 43 -11z m-960 -34 c0 -14 5 -34 12 -44 6 -10 8 -27 4
-37 -7 -17 -9 -17 -18 6 -13 29 -16 100 -5 100 4 0 7 -11 7 -25z m870 2 c0
-16 -3 -18 -12 -9 -8 8 -15 9 -25 1 -10 -9 -13 -7 -13 7 0 13 8 19 25 20 19 2
25 -3 25 -19z m137 17 c-3 -3 -12 -4 -19 -1 -8 3 -5 6 6 6 11 1 17 -2 13 -5z
m1530 -21 c-5 -12 -14 -23 -18 -23 -4 0 -15 -7 -23 -16 -9 -8 -16 -11 -16 -5
0 6 -12 11 -26 11 -25 0 -25 0 -8 29 15 25 23 29 60 29 41 -1 42 -2 31 -25z
m-1593 -33 c28 0 69 -42 64 -67 -2 -10 -13 -22 -26 -28 -27 -12 -28 -21 -3
-34 10 -6 21 -22 23 -36 5 -22 2 -25 -21 -25 -15 0 -36 -7 -48 -15 -22 -15
-36 -62 -22 -71 16 -10 9 -36 -11 -41 -23 -6 -26 -19 -7 -26 8 -3 2 -16 -18
-38 -43 -49 -52 -70 -48 -110 5 -40 -4 -51 -61 -69 -22 -7 -41 -20 -43 -30 -4
-15 -12 -17 -41 -13 -21 4 -38 10 -40 15 -6 14 -22 9 -22 -7 0 -21 -60 -34
-111 -25 -27 5 -45 5 -47 -1 -3 -6 -9 -6 -15 -1 -7 5 -38 14 -69 21 -32 7 -58
17 -58 23 0 6 -20 8 -47 6 -58 -4 -118 31 -110 63 3 11 1 17 -3 14 -5 -3 -11
4 -15 15 -3 11 -15 20 -26 20 -12 0 -19 7 -19 20 0 11 5 20 10 20 6 0 10 7 10
15 0 11 11 15 38 15 59 0 82 10 89 39 11 46 7 83 -12 97 -30 23 -10 27 63 14
38 -7 83 -10 98 -6 33 9 127 16 228 19 45 1 71 6 73 15 8 23 23 12 23 -16 0
-31 36 -57 64 -46 18 7 28 86 16 120 -12 32 -12 37 -1 30 5 -4 12 8 16 25 4
17 18 40 31 51 13 12 21 25 18 30 -3 4 0 8 5 8 6 0 11 8 11 18 0 29 12 34 27
12 8 -11 24 -20 37 -20z m-296 18 c8 -8 9 -15 1 -25 -21 -25 -69 -9 -69 24 0
16 52 17 68 1z m1292 -13 c13 -16 6 -35 -15 -35 -18 0 -28 17 -21 35 7 19 20
19 36 0z m500 -35 c0 -5 -4 -10 -10 -10 -5 0 -10 5 -10 10 0 6 5 10 10 10 6 0
10 -4 10 -10z m-282 -47 c-6 -34 -138 -50 -138 -17 0 7 10 16 23 18 12 3 31 7
42 9 50 11 77 7 73 -10z m-1121 -29 c-3 -3 -12 -4 -19 -1 -8 3 -5 6 6 6 11 1
17 -2 13 -5z m163 -119 c0 -10 -10 -15 -29 -15 -36 0 -50 17 -19 23 42 8 48 7
48 -8z m2340 -130 c0 -8 -4 -15 -10 -15 -5 0 -10 7 -10 15 0 8 5 15 10 15 6 0
10 -7 10 -15z m-1303 -20 c9 -25 -3 -28 -36 -10 -39 20 -39 25 -1 25 18 0 33
-6 37 -15z m-2167 -26 c27 -14 -19 -23 -54 -11 -18 7 -40 12 -49 12 -9 0 -19
5 -23 11 -7 12 100 2 126 -12z m2800 -219 c0 -22 -4 -40 -10 -40 -5 0 -10 18
-10 40 0 22 5 40 10 40 6 0 10 -18 10 -40z m-246 14 c28 -11 18 -34 -13 -34
-36 0 -48 15 -24 29 22 13 18 12 37 5z m-1882 -26 c-9 -9 -15 -9 -24 0 -9 9
-7 12 12 12 19 0 21 -3 12 -12z m2088 -67 c0 -5 -7 -11 -15 -15 -9 -3 -15 0
-15 9 0 8 7 15 15 15 8 0 15 -4 15 -9z m-220 -30 c9 -1 3 -8 -15 -18 -20 -11
-30 -12 -33 -4 -9 26 -22 8 -22 -29 0 -37 13 -55 22 -29 4 11 38 2 38 -11 0
-4 -12 -10 -27 -12 -16 -3 -36 -9 -45 -13 -13 -5 -18 -3 -18 9 0 10 -9 16 -25
16 -27 0 -32 9 -13 28 8 8 8 15 -2 27 -15 18 -15 17 25 31 26 9 67 11 115 5z
m-106 -140 c3 -5 27 -12 53 -16 43 -7 46 -8 26 -18 -34 -15 -28 -27 15 -28 36
0 48 -2 120 -14 17 -3 41 -15 51 -26 13 -14 37 -22 76 -26 34 -4 59 -11 62
-20 3 -7 22 -20 42 -29 20 -9 44 -20 53 -25 10 -5 28 -9 41 -9 13 0 32 -9 42
-20 10 -11 24 -20 30 -20 7 0 18 -7 26 -16 7 -9 22 -14 36 -11 15 3 23 -1 23
-10 0 -7 7 -16 15 -20 9 -3 22 -18 30 -34 10 -19 28 -32 57 -41 22 -6 43 -19
45 -28 6 -23 53 -42 70 -28 20 16 26 3 11 -22 -11 -19 -10 -23 10 -40 23 -19
29 -40 12 -40 -5 0 -10 5 -10 10 0 6 -9 5 -21 -2 -16 -10 -23 -10 -26 -1 -2 6
-13 22 -24 35 -18 20 -22 21 -32 7 -7 -8 -22 -18 -34 -21 -20 -5 -23 -2 -23
22 0 16 7 30 15 34 8 3 15 15 15 26 0 22 -16 27 -23 8 -2 -8 -15 -1 -35 20
-16 17 -44 35 -61 38 -17 4 -28 11 -24 17 4 6 -4 8 -24 4 -28 -5 -30 -4 -25
19 4 21 1 24 -26 24 -17 0 -37 6 -44 13 -7 8 -21 12 -32 9 -11 -3 -17 -1 -13
5 8 13 -57 43 -100 46 -17 1 -29 5 -27 8 5 9 -55 33 -62 26 -3 -3 -14 3 -25
14 -10 10 -31 21 -46 24 -16 3 -55 15 -88 26 -33 12 -78 25 -100 29 -63 13
-120 37 -123 52 -1 8 9 20 23 26 14 6 25 16 25 22 0 12 17 13 24 1z m749 -128
c-7 -17 -19 -17 -27 2 -3 9 -18 15 -36 15 -20 0 -29 4 -25 11 4 6 13 8 21 5 8
-3 14 -1 14 5 0 6 13 2 29 -7 17 -10 27 -23 24 -31z m-488 -110 c27 -10 53
-21 56 -26 8 -11 108 -48 144 -54 58 -8 75 -13 75 -23 0 -6 -12 -10 -26 -10
-16 0 -24 -5 -22 -12 7 -19 43 -21 58 -3 30 36 84 -5 73 -56 -5 -27 -3 -29 23
-29 23 0 32 -7 42 -30 8 -17 21 -30 32 -30 10 0 23 -12 30 -30 7 -17 25 -39
40 -50 26 -19 66 -108 53 -120 -3 -3 -8 1 -11 9 -2 7 -15 23 -28 34 -13 11
-24 29 -24 39 0 13 -8 18 -27 18 -27 0 -57 23 -159 120 -17 17 -36 30 -42 30
-6 0 -12 4 -14 8 -1 5 -16 12 -33 16 l-30 7 33 -22 c37 -24 41 -39 11 -39 -27
0 -59 -18 -59 -33 0 -9 -13 -11 -40 -9 -22 2 -40 8 -40 14 0 5 -7 3 -15 -6
-19 -19 -19 -33 2 -54 16 -16 16 -17 0 -20 -27 -5 -20 -22 16 -38 62 -30 77
-39 77 -46 0 -4 7 -5 16 -1 22 8 64 -17 64 -39 0 -10 -4 -18 -10 -18 -5 0 -10
5 -10 10 0 14 -33 13 -48 -2 -9 -9 -23 -2 -59 31 -27 23 -63 48 -80 56 -18 9
-33 19 -33 24 0 5 -13 14 -30 20 -17 5 -30 17 -30 27 0 13 -7 15 -31 12 -27
-4 -31 -1 -36 24 -4 19 -10 27 -19 24 -8 -3 -14 -2 -14 3 0 4 -18 13 -40 20
-22 6 -40 16 -40 22 0 5 -11 7 -25 3 -19 -5 -25 -2 -25 10 0 9 -5 16 -11 16
-15 0 -111 63 -128 84 -10 12 -9 14 8 9 12 -3 21 -9 21 -14 0 -5 12 -6 26 -3
14 4 29 2 33 -3 8 -13 61 -26 61 -14 0 15 -29 33 -41 25 -8 -4 -9 -3 -5 4 4 7
14 12 21 12 14 0 105 -38 150 -63 11 -5 55 -28 97 -50 43 -23 79 -48 81 -56 3
-14 5 -13 12 2 5 13 0 26 -20 47 -27 28 -27 28 -6 40 12 6 19 15 16 21 -4 5 3
9 15 9 12 0 19 -4 16 -8 -7 -12 31 -42 55 -42 11 0 17 -4 14 -10 -9 -15 -41
-12 -59 5 -18 18 -26 19 -26 3 0 -21 32 -48 57 -48 14 0 21 -4 18 -10 -8 -13
1 -13 26 1 11 5 17 14 14 19 -3 6 1 7 10 3 15 -5 15 -3 4 16 -8 11 -18 21 -24
21 -5 0 -2 5 8 11 9 5 17 14 17 18 0 10 -106 66 -141 74 -14 4 -36 15 -48 26
-13 11 -44 27 -70 36 -72 26 -111 47 -104 58 8 13 95 2 158 -20z m-2750 -3 c3
-5 1 -10 -4 -10 -6 0 -11 5 -11 10 0 6 2 10 4 10 3 0 8 -4 11 -10z m3162 -26
c-3 -3 -12 -4 -19 -1 -8 3 -5 6 6 6 11 1 17 -2 13 -5z m-777 -35 c0 -6 7 -9
15 -6 8 4 17 2 20 -4 4 -5 -2 -12 -11 -16 -10 -4 -19 -2 -22 5 -2 7 -10 12
-17 12 -8 0 -17 5 -20 10 -3 6 3 10 14 10 12 0 21 -5 21 -11z m-232 -175 c12
-4 22 -10 22 -15 0 -15 -47 -10 -60 6 -14 17 -3 20 38 9z m408 -41 c12 -15 21
-30 18 -35 -9 -14 -34 -9 -34 7 0 8 -4 15 -10 15 -5 0 -10 9 -10 20 0 27 8 25
36 -7z m494 13 c0 -2 -7 -7 -16 -10 -8 -3 -12 -2 -9 4 6 10 25 14 25 6z m-799
-18 c22 -6 39 -15 39 -20 0 -4 7 -8 16 -8 9 0 50 -16 90 -35 40 -19 78 -35 84
-35 6 0 26 -11 44 -25 18 -14 37 -25 43 -25 5 0 27 -13 49 -30 21 -16 49 -30
62 -30 12 0 22 -4 22 -8 0 -4 25 -23 54 -41 30 -18 56 -36 58 -39 2 -4 23 -20
48 -37 25 -16 62 -43 82 -60 20 -16 64 -50 97 -75 58 -43 76 -70 48 -70 -15 0
-150 88 -155 102 -2 5 -22 18 -45 30 -23 11 -49 31 -59 43 -10 13 -30 26 -45
30 -15 3 -30 10 -33 14 -19 27 -147 107 -250 157 -30 14 -62 32 -70 38 -8 7
-33 18 -55 25 -55 17 -121 51 -169 84 -34 23 -36 27 -16 27 12 0 40 -5 61 -12z
m1089 -24 c0 -17 -22 -14 -28 4 -2 7 3 12 12 12 9 0 16 -7 16 -16z m-225 -44
c3 -5 1 -10 -4 -10 -6 0 -11 5 -11 10 0 6 2 10 4 10 3 0 8 -4 11 -10z m-179
-67 c-10 -10 -19 5 -10 18 6 11 8 11 12 0 2 -7 1 -15 -2 -18z m-556 7 c0 -5
-7 -10 -16 -10 -8 0 -12 5 -9 10 3 6 10 10 16 10 5 0 9 -4 9 -10z m13 -27 c-7
-2 -19 -2 -25 0 -7 3 -2 5 12 5 14 0 19 -2 13 -5z m57 -8 c7 -8 19 -15 26 -15
8 0 14 -4 14 -9 0 -4 19 -21 42 -37 29 -21 36 -30 25 -32 -9 -2 -27 4 -39 12
-12 9 -30 16 -40 16 -10 0 -18 5 -18 10 0 6 -11 15 -25 20 -24 9 -32 29 -18
43 10 11 19 8 33 -8z m554 -62 c4 -4 23 -6 42 -4 29 2 34 -1 34 -18 0 -12 -6
-21 -15 -21 -9 0 -15 -9 -15 -25 0 -25 0 -25 -32 -9 -30 15 -31 17 -14 30 16
12 14 12 -19 7 -31 -5 -36 -4 -29 8 5 8 9 17 10 22 1 4 2 9 3 12 2 8 27 6 35
-2z m-734 -43 c0 -5 -7 -10 -15 -10 -8 0 -15 5 -15 10 0 6 7 10 15 10 8 0 15
-4 15 -10z m350 -10 c0 -5 -4 -10 -9 -10 -6 0 -13 5 -16 10 -3 6 1 10 9 10 9
0 16 -4 16 -10z m524 -42 c-9 -31 -11 -33 -29 -18 -20 16 -19 27 3 33 31 8 33
7 26 -15z m-464 5 c0 -5 3 -18 6 -30 9 -32 -24 -31 -36 1 -5 13 -15 26 -22 29
-7 3 2 6 20 6 17 1 32 -2 32 -6z m58 -60 c2 -8 -5 -13 -17 -13 -12 0 -21 6
-21 16 0 18 31 15 38 -3z m438 -10 c-10 -10 -19 5 -10 18 6 11 8 11 12 0 2 -7
1 -15 -2 -18z m-366 -48 c0 -27 -9 -32 -27 -14 -14 14 -6 39 13 39 8 0 14 -10
14 -25z m46 -62 c-10 -10 -19 5 -10 18 6 11 8 11 12 0 2 -7 1 -15 -2 -18z m84
-61 c0 -13 -12 -22 -22 -16 -10 6 -1 24 13 24 5 0 9 -4 9 -8z m-180 -32 c0 -5
-9 -10 -20 -10 -11 0 -20 5 -20 10 0 6 9 10 20 10 11 0 20 -4 20 -10z m-2110
-160 c0 -29 -4 -40 -15 -40 -11 0 -15 -11 -15 -40 l0 -40 40 0 40 0 0 -40 0
-40 -40 0 -40 0 0 40 c0 36 -2 40 -25 40 -23 0 -25 -4 -26 -42 l-2 -43 -7 50
c-5 28 -9 83 -9 123 l-1 72 50 0 50 0 0 -40z m253 -119 c30 -1 37 -5 37 -21 0
-17 -7 -20 -40 -20 -33 0 -40 3 -40 19 0 17 -6 19 -35 17 -19 -2 -37 -1 -39 3
-3 4 14 6 37 5 23 -1 59 -2 80 -3z m57 -85 c0 -3 -4 -8 -10 -11 -5 -3 -10 -1
-10 4 0 6 5 11 10 11 6 0 10 -2 10 -4z m3128 -208 c19 -19 14 -25 -25 -33 -21
-4 -44 -11 -50 -17 -19 -15 -17 12 3 40 17 24 53 29 72 10z"/>
<path d="M3620 1576 c0 -15 27 -29 40 -21 5 3 7 12 3 20 -7 19 -43 20 -43 1z"/>
<path d="M3110 1550 c0 -5 5 -10 10 -10 6 0 10 5 10 10 0 6 -4 10 -10 10 -5 0
-10 -4 -10 -10z"/>
<path d="M3310 1431 c0 -22 47 -38 63 -22 14 14 1 26 -35 35 -23 5 -28 3 -28
-13z"/>
<path d="M180 4730 c0 -13 34 -60 69 -96 18 -18 27 -21 37 -13 9 7 15 6 23 -8
21 -38 109 -124 184 -177 43 -31 80 -56 83 -56 3 0 14 -9 26 -19 11 -11 45
-32 76 -48 90 -46 140 -76 201 -121 24 -18 31 -20 31 -8 0 8 -4 17 -9 20 -5 3
-11 19 -13 36 -4 23 0 31 15 36 23 7 67 -14 67 -33 0 -21 15 -15 29 11 9 15
25 26 45 29 36 5 56 -7 56 -34 0 -11 5 -19 11 -19 7 0 9 10 5 26 -5 17 -3 23
4 19 5 -3 10 1 10 10 0 9 7 15 16 13 22 -4 42 63 46 155 3 71 3 71 -27 86 -16
8 -32 17 -35 22 -3 4 -16 9 -30 12 -25 4 -25 4 3 6 29 1 38 21 10 21 -10 1
-31 7 -48 14 l-30 14 28 11 c15 6 27 15 27 21 0 5 -1 10 -3 10 -1 0 -57 7
-122 15 -66 8 -122 15 -124 15 -2 0 2 6 8 14 18 21 -14 24 -356 25 -228 2
-313 -1 -313 -9z m698 -448 c2 -7 -3 -12 -12 -12 -9 0 -16 7 -16 16 0 17 22
14 28 -4z m2 -32 c0 -5 -2 -10 -4 -10 -3 0 -8 5 -11 10 -3 6 -1 10 4 10 6 0
11 -4 11 -10z"/>
<path d="M4625 4731 c-18 -7 -18 -8 -1 -18 14 -7 -2 -11 -66 -16 -45 -4 -104
-7 -130 -7 -27 0 -48 -4 -48 -10 0 -5 25 -10 56 -10 l57 0 -24 -18 c-41 -31
-80 -41 -196 -47 -102 -7 -113 -9 -113 -26 0 -15 -7 -19 -40 -19 -22 0 -40 5
-40 10 0 6 -18 10 -40 10 l-40 0 0 -40 0 -40 40 0 c22 0 40 -4 40 -10 0 -5
-22 -10 -49 -10 -51 0 -111 -16 -111 -30 0 -5 -26 -10 -57 -12 -51 -3 -58 -6
-61 -25 -5 -38 -24 -44 -71 -26 -28 11 -45 13 -49 6 -18 -27 -242 -24 -242 3
0 15 -12 16 -50 4 l-25 -8 23 -7 c12 -4 22 -11 22 -16 0 -10 -17 -12 -82 -9
-30 1 -48 -2 -48 -9 0 -6 -7 -11 -17 -11 -64 0 123 -45 227 -55 95 -9 107 -13
113 -35 4 -17 11 -19 52 -15 26 2 50 6 52 9 3 3 17 -1 32 -9 19 -9 32 -10 45
-3 10 5 26 8 37 5 11 -3 19 0 19 8 0 8 13 11 43 9 29 -3 57 3 92 20 28 13 88
33 135 45 47 12 89 26 94 32 6 5 17 9 25 9 9 0 28 6 43 14 14 8 43 19 64 26
21 7 45 19 52 27 7 7 24 13 36 13 13 0 29 6 35 14 7 8 27 17 46 20 18 4 35 11
37 17 2 5 10 11 18 12 8 2 20 5 25 9 6 3 21 4 35 3 14 -1 37 6 52 16 14 11 29
19 33 19 3 0 13 6 21 14 16 17 20 126 4 126 -5 0 -10 7 -10 15 0 8 6 15 13 15
8 0 7 4 -3 10 -18 11 -77 12 -105 1z"/>
<path d="M4275 4680 c3 -5 19 -10 36 -10 16 0 29 5 29 10 0 6 -16 10 -36 10
-21 0 -33 -4 -29 -10z"/>
<path d="M4001 4604 c0 -11 3 -14 6 -6 3 7 2 16 -1 19 -3 4 -6 -2 -5 -13z"/>
<path d="M4020 4605 c0 -10 10 -15 30 -15 20 0 30 5 30 15 0 10 -10 15 -30 15
-20 0 -30 -5 -30 -15z"/>
<path d="M1276 4535 c-3 -9 0 -15 9 -15 8 0 15 7 15 15 0 8 -4 15 -9 15 -5 0
-11 -7 -15 -15z"/>
<path d="M1253 4483 c-4 -10 -14 -28 -24 -41 -14 -19 -17 -37 -14 -85 2 -34 5
-65 5 -69 0 -4 11 -3 25 2 16 6 34 6 50 0 27 -10 82 -3 91 11 7 12 48 11 60
-1 15 -15 42 -2 50 22 4 15 12 18 29 14 17 -4 22 -2 21 12 -1 14 7 17 47 15
26 -1 55 -7 64 -15 13 -10 17 -10 20 0 3 6 14 12 25 12 34 0 14 24 -29 35 -22
5 -47 15 -55 22 -11 10 -19 9 -37 -3 -17 -12 -26 -13 -34 -5 -6 6 -23 11 -37
11 -26 0 -35 11 -56 65 -7 19 -8 19 -12 -3 -3 -19 -8 -21 -25 -16 -12 4 -33 8
-45 9 -13 1 -27 7 -31 14 -5 8 -11 3 -20 -15 -9 -21 -14 -24 -26 -14 -8 7 -15
19 -15 26 0 20 -19 17 -27 -3z"/>
<path d="M3185 4360 c-3 -5 -1 -10 4 -10 6 0 11 5 11 10 0 6 -2 10 -4 10 -3 0
-8 -4 -11 -10z"/>
<path d="M2975 4320 c-3 -5 -1 -10 4 -10 6 0 11 5 11 10 0 6 -2 10 -4 10 -3 0
-8 -4 -11 -10z"/>
<path d="M4707 4105 c-5 -11 0 -15 16 -15 12 0 18 4 12 8 -5 4 -13 11 -16 15
-4 4 -9 1 -12 -8z"/>
<path d="M4640 4030 c0 -17 6 -20 43 -19 27 1 33 3 17 6 -14 3 -29 11 -33 19
-12 20 -27 17 -27 -6z"/>
<path d="M4255 3951 c-3 -5 -1 -12 5 -16 5 -3 10 1 10 9 0 18 -6 21 -15 7z"/>
<path d="M4638 3933 c7 -3 16 -2 19 1 4 3 -2 6 -13 5 -11 0 -14 -3 -6 -6z"/>
<path d="M4077 3916 c-4 -10 -1 -13 9 -9 15 6 19 23 5 23 -5 0 -11 -7 -14 -14z"/>
<path d="M4160 3902 c0 -10 45 -32 65 -32 24 0 17 14 -12 28 -31 14 -53 16
-53 4z"/>
<path d="M4152 3840 c0 -14 2 -19 5 -12 2 6 2 18 0 25 -3 6 -5 1 -5 -13z"/>
<path d="M4035 3775 c-22 -13 -50 -25 -62 -25 -12 0 -25 -4 -28 -10 -3 -5 -14
-10 -23 -10 -9 0 -30 -7 -46 -15 -27 -14 -96 -21 -96 -9 0 3 5 14 10 25 15 28
-15 25 -43 -4 -12 -12 -34 -30 -49 -40 -16 -10 -28 -22 -28 -27 0 -13 46 -13
72 1 11 6 22 8 26 5 9 -10 -31 -40 -73 -55 -58 -20 -69 -30 -52 -50 8 -9 15
-39 15 -69 1 -64 6 -72 41 -72 35 0 65 -31 56 -58 -3 -11 -1 -23 4 -26 6 -4 6
-18 1 -37 -7 -24 -5 -33 11 -47 10 -9 19 -26 19 -39 0 -14 8 -24 23 -29 12 -4
28 -15 35 -25 7 -11 20 -19 28 -19 8 0 30 -17 49 -37 26 -29 44 -38 82 -43 26
-4 63 -11 80 -15 30 -7 34 -5 43 21 31 82 34 109 15 165 -10 30 -21 77 -25
104 -4 28 -13 71 -20 96 -11 39 -11 50 3 77 8 18 12 32 8 32 -4 0 -8 14 -9 31
0 17 -6 37 -12 44 -9 11 -5 18 17 32 15 9 31 22 35 27 8 12 -1 66 -14 83 -5 7
-7 16 -4 22 6 9 -15 21 -37 21 -7 0 -30 -11 -52 -25z"/>
<path d="M4160 2954 c0 -20 11 -45 30 -69 17 -21 30 -42 30 -46 0 -5 5 -9 11
-9 7 0 17 -7 24 -16 10 -14 13 -14 17 -2 3 7 -7 33 -23 56 -16 24 -29 49 -29
57 0 8 -10 20 -22 26 -13 7 -26 17 -30 23 -4 6 -8 -3 -8 -20z"/>
<path d="M4292 2745 c1 -73 14 -117 28 -95 14 23 11 60 -10 110 l-19 45 1 -60z"/>
<path d="M3735 2730 c-3 -5 1 -10 9 -10 8 0 18 5 21 10 3 6 -1 10 -9 10 -8 0
-18 -4 -21 -10z"/>
<path d="M1920 2640 c0 -5 -18 -10 -40 -10 -33 0 -40 -3 -40 -20 0 -17 7 -20
40 -20 22 0 40 -4 40 -10 0 -5 7 -7 15 -4 20 8 29 42 15 59 -14 17 -30 20 -30
5z"/>
<path d="M320 1620 c0 -5 7 -7 15 -4 8 4 15 8 15 10 0 2 -7 4 -15 4 -8 0 -15
-4 -15 -10z"/>
<path d="M528 1323 c6 -2 18 -2 25 0 6 3 1 5 -13 5 -14 0 -19 -2 -12 -5z"/>
<path d="M865 851 c-3 -5 -1 -12 5 -16 5 -3 10 1 10 9 0 18 -6 21 -15 7z"/>
</g>
</svg>
